#!OML:ASF E:/inclinewalkrobotboard/Project1/Captureday1/Session1/subject1.ASF
:FULLY-SPECIFIED
:DEGREES
151
root 0 0 0 85.62019380885454 -33.18592048594306 -56.10615096457336
lowerback -11.443045682210522 9.710275380710419 14.19492256049673
upperback -20.792822497067057 12.309417363711896 3.1281944776943704
thorax -15.228216718312506 4.232112816146253 -3.7835014405955834
lowerneck -8.944891617687384 11.971724793904944 6.241667425759457
upperneck 10.156505198279278 14.268372067764098 9.164375894953295
head 4.5249336388152726 7.722992545512757 2.7927153645282847
rclavicle 9.423787302967373E-15 7.878098099673608E-15
rhumerus 33.7936627975331 -50.11293594707263 -14.572799531624618
rradius 19.908662693329212
rwrist 40.37954715708098
rhand 0.5684687815924652 2.3248605258770603
rfingers 7.125020000000066
rthumb 26.135584375920267 -25.865081946301892
lclavicle 8.689414908443599E-16 2.06766809203725E-15
lhumerus -7.218018362668095 12.988234942823766 -4.201136401350659
lradius 20.903509610438018
lwrist -38.93417835677471
lhand 0.5072864710037777 34.35026409520535
lfingers 7.125020000000039
lthumb 26.046735417441283 62.480405697029795
rfemur 206.37785826581728 -182.70307440399984 -174.29626475837404
rtibia 56.74271563109296
rfoot 58.32493309810887 -31.03374494576189
rtoes 15.774204442321244
lfemur -54.307748861018574 25.560861495321674 21.301698598661304
ltibia 22.99268550799743
lfoot -66.10205818289903 8.912789430827347
ltoes 60.37217168564616
152
root 0 0 0 85.63576993344503 -33.19715406989711 -56.11944486972121
lowerback -11.449917759001686 9.709178298405169 14.180183171799671
upperback -20.78148964718952 12.30809332883748 3.1223399271733148
thorax -15.211939250108628 4.233711557417601 -3.784625713063342
lowerneck -8.958158764473575 11.966250381241581 6.244700205045051
upperneck 10.163727349225075 14.259926828258589 9.150356161545812
head 4.53104815659461 7.718832700360402 2.788129139158701
rclavicle 9.40612617220616E-15 7.846350850852969E-15
rhumerus 34.005082523734245 -50.0636004767815 -14.813444319357359
rradius 19.944910848240553
rwrist 40.36571464735246
rhand 0.5764220754111644 2.331925360574165
rfingers 7.125020000000067
rthumb 26.14355801134569 -25.85463503852552
lclavicle 8.996474576450926E-16 2.0220798351852056E-15
lhumerus -7.128289772177862 12.97254708935144 -4.23539509551469
lradius 20.926544461254306
lwrist -38.87274629974324
lhand 0.5267547215742139 34.37326558036035
lfingers 7.125020000000039
lthumb 26.064899108227337 62.49919501968133
rfemur 206.41537416835322 -182.73496132459036 -174.32609761593494
rtibia 56.77037862070358
rfoot 58.3633815338946 -30.996775625935094
rtoes 15.75617686688579
lfemur -54.29917241894401 25.54787605961382 21.296154412132502
ltibia 22.976454594411457
lfoot -66.11859615932653 8.90187276552148
ltoes 60.36451725234727
153
root 0 0 0 85.62922877298801 -33.19075327573952 -56.11307212692414
lowerback -11.446859146556633 9.709703960285855 14.187216767563072
upperback -20.787446402829968 12.308644386455176 3.1251123954664015
thorax -15.220167063379284 4.232858937127633 -3.784091512827324
lowerneck -8.951479885034562 11.96914257080588 6.243261672012532
upperneck 10.158727783217786 14.264415978713078 9.157340163653835
head 4.527412684500667 7.721035081781277 2.790430349711057
rclavicle 9.375518847313855E-15 7.844236449419099E-15
rhumerus 33.89316725162536 -50.09145815381952 -14.702429541713315
rradius 19.919038718956593
rwrist 40.362677028180215
rhand 0.5714513676647703 2.328157919627393
rfingers 7.125020000000066
rthumb 26.138418963264176 -25.860274126272024
lclavicle 8.484456431275874E-16 2.029629292982085E-15
lhumerus -7.13908863647269 12.979890128949299 -4.233738924208225
lradius 20.910665092206713
lwrist -38.909076671607295
lhand 0.5210220636955378 34.361693508954204
lfingers 7.125020000000039
lthumb 26.059699262306975 62.489063013571155
rfemur 206.39598803559738 -182.7187851337124 -174.30749095194685
rtibia 56.75566566556445
rfoot 58.348564103220355 -31.0175321597816
rtoes 15.766315373077775
lfemur -54.30859690149079 25.55411970628611 21.300038989020138
ltibia 22.98710149134834
lfoot -66.11036256713024 8.91176002450241
ltoes 60.36778668697294
154
root 0 0 0 85.62510845721454 -33.188217191986766 -56.10984618348844
lowerback -11.445161367774105 9.709976974913413 14.190702064266869
upperback -20.790016539921268 12.309008309171157 3.1265348816690124
thorax -15.223957102298185 4.232518769217436 -3.783773926286023
lowerneck -8.948404825397338 11.970429680911497 6.242581849057247
upperneck 10.157421000289741 14.266380589320775 9.160620728182403
head 4.526156195648446 7.722007765953905 2.791492439669742
rclavicle 9.404528440776708E-15 7.860832308584278E-15
rhumerus 33.84734460106459 -50.103984217850396 -14.640918176794173
rradius 19.91017859143094
rwrist 40.371483137329655
rhand 0.5704450483160031 2.325536607950398
rfingers 7.125020000000066
rthumb 26.137441633571587 -25.86354350363975
lclavicle 8.601054108253526E-16 2.047124833976868E-15
lhumerus -7.1723803653813345 12.984694716981732 -4.22206299904709
lradius 20.905600558271374
lwrist -38.92242042517724
lhand 0.5152193436370769 34.355654961673764
lfingers 7.125020000000039
lthumb 26.05424085372241 62.48427450933367
rfemur 206.38721328744538 -182.71001163152334 -174.30123198218712
rtibia 56.74891140795639
rfoot 58.338880125686174 -31.026014325789756
rtoes 15.771713419603275
lfemur -54.30795949401782 25.557746979405366 21.300889991708033
ltibia 22.99041155021265
lfoot -66.10746199461461 8.913667726420456
ltoes 60.3703434229648
155
root 0 0 0 85.62123085236603 -33.18635933164472 -56.10693989292246
lowerback -11.443497330677605 9.71021782518077 14.194018137844436
upperback -20.79223095282338 12.30933932278426 3.12784052252882
thorax -15.227318006995237 4.232204567424756 -3.783555929689201
lowerneck -8.945638920511026 11.971453330895407 6.241865855001901
upperneck 10.156691289924634 14.267954927448189 9.163575936345161
head 4.52519124919835 7.722786264526059 2.7924536944283114
rclavicle 9.417268686887013E-15 7.875364351599381E-15
rhumerus 33.80815075880764 -50.11120537901847 -14.589216625605218
rradius 19.90859660833477
rwrist 40.37801460057122
rhand 0.5692561383182375 2.324669088133798
rfingers 7.125020000000066
rthumb 26.136328865755473 -25.865015546891975
lclavicle 8.653018436692149E-16 2.063788519319452E-15
lhumerus -7.205903619379837 12.987610240170003 -4.2064456180372005
lradius 20.903881937022614
lwrist -38.9316497500134
lhand 0.5093334449362767 34.3515805826064
lfingers 7.125020000000039
lthumb 26.048677502999254 62.481354040263156
rfemur 206.38044270110072 -182.7049323841934 -174.29752650220644
rtibia 56.74414649959025
rfoot 58.32826579843805 -31.031582525845394
rtoes 15.774034577046255
lfemur -54.30811448005251 25.56015773905792 21.301441674806398
ltibia 22.9923727910122
lfoot -66.10344742761819 8.91321447644211
ltoes 60.371680108401044
156
root 0 0 0 85.61944677974753 -33.18570142994772 -56.10560204062627
lowerback -11.442721938590234 9.710313187260802 14.195575632138429
upperback -20.79322282975749 12.309470209008898 3.128449898808825
thorax -15.228833225176398 4.232046854204369 -3.7834657021792726
lowerneck -8.94437218364716 11.971904937309116 6.241521819307167
upperneck 10.156418431228465 14.268648383756153 9.164938253215976
head 4.524770202900568 7.723129433639738 2.792899824593541
rclavicle 9.428861138019816E-15 7.880612340277156E-15
rhumerus 33.78040782231722 -50.11405744337565 -14.559009318422781
rradius 19.909189057937468
rwrist 40.3805001663139
rhand 0.5676076886707864 2.3253135191524743
rfingers 7.125020000000066
rthumb 26.134768482702434 -25.86488036173054
lclavicle 8.718636565608008E-16 2.0710469181591917E-15
lhumerus -7.228595047296141 12.988513420784805 -4.196949677523186
lradius 20.903293143842962
lwrist -38.93604311455451
lhand 0.5056104943913964 34.34920926575124
lfingers 7.125020000000039
lthumb 26.045142698774647 62.47963676301235
rfemur 206.37549348672923 -182.70141894853094 -174.29511505838627
rtibia 56.74153402783311
rfoot 58.32214718414319 -31.03587414050135
rtoes 15.774095365887941
lfemur -54.30741384137168 25.56133615924466 21.301891616714904
ltibia 22.992860413735922
lfoot -66.10088458857284 8.912382171612508
ltoes 60.372474843264534
157
root 0 0 0 85.63554343768725 -33.19720627501433 -56.11930065591085
lowerback -11.449828839157162 9.709185808286573 14.180376705759569
upperback -20.781576846673662 12.308106626953274 3.122418427804515
thorax -15.212082009731262 4.2336931466713486 -3.7846153717767583
lowerneck -8.958031736262997 11.966284384847167 6.2446520219598725
upperneck 10.163756162742361 14.259979178303738 9.150507072867882
head 4.531026077202458 7.71885887696766 2.788179467162314
rclavicle 9.407253986415845E-15 7.84639675311517E-15
rhumerus 33.99706258631176 -50.063948472876774 -14.806468299713991
rradius 19.945420081839117
rwrist 40.36591041254309
rhand 0.5757439718877779 2.3324620848274744
rfingers 7.125020000000067
rthumb 26.142911111381252 -25.854262969789715
lclavicle 9.003466662310174E-16 2.0227231612503872E-15
lhumerus -7.133887977632742 12.972415886303203 -4.233855813706555
lradius 20.926477860707756
lwrist -38.873444657565884
lhand 0.5260223721460424 34.37278082291309
lfingers 7.125020000000039
lthumb 26.064201239437292 62.49881600718584
rfemur 206.41381188670755 -182.7339284516588 -174.3252904087836
rtibia 56.76975109489625
rfoot 58.36211868369388 -30.998241291383074
rtoes 15.755999439131243
lfemur -54.298878553292106 25.548031551618216 21.296205767898186
ltibia 22.97644730332737
lfoot -66.11805698084785 8.901688467768217
ltoes 60.364571720079134
158
root 0 0 0 85.6291322673341 -33.190838345825924 -56.113023443306176
lowerback -11.44682797914226 9.70970549768143 14.187296213140012
upperback -20.787465522242947 12.308649369592992 3.125146916896207
thorax -15.220203787466142 4.232852460122515 -3.784086425323955
lowerneck -8.951443177365547 11.969146142721355 6.243238975297875
upperneck 10.158768179051327 14.264421781522158 9.157393848499542
head 4.527417733249055 7.721038168298772 2.790448708640803
rclavicle 9.375852337937155E-15 7.843802888714366E-15
rhumerus 33.88745395353662 -50.09166160159141 -14.697713794944008
rradius 19.91939543781848
rwrist 40.36277875428433
rhand 0.5709385946585481 2.328586525951861
rfingers 7.125020000000066
rthumb 26.137929002262492 -25.859965713988736
lclavicle 8.486769597908672E-16 2.0296625628881052E-15
lhumerus -7.14273779589967 12.979716472701632 -4.233045407842674
lradius 20.910616326123378
lwrist -38.90947376162998
lhand 0.5206120459546602 34.36139421108126
lfingers 7.125020000000039
lthumb 26.059307987953147 62.488815213868534
rfemur 206.39482296884768 -182.71802393221878 -174.30685291039202
rtibia 56.7552257413619
rfoot 58.347799183504975 -31.018646410499763
rtoes 15.766200504872044
lfemur -54.308374173428426 25.55419534269287 21.300053975645262
ltibia 22.98707753232054
lfoot -66.11003540301337 8.91166085622625
ltoes 60.367784141218166
